<svg xmlns="http://www.w3.org/2000/svg" viewBox="0 0 100 100"><path d="M 0 38.9 A 28.6 28.6 90 1 1 55.9 44.1 A 28.6 28.6 90 1 1 61.1 100 L 0 100 L 0 93.5 L 19.4272 93.5 c 1.4947 3.0207 4.5952 5.0972 8.194 5.0963 c 3.6209 -0.0009 6.7389 -2.1042 8.2226 -5.1523 l 18.7259 0.0009 c 1.4846 3.0473 4.6027 5.1541 8.2235 5.1514 c 5.0558 0 9.152 -4.0962 9.1538 -9.1538 c -0.0009 -5.0586 -4.0971 -9.1547 -9.1565 -9.1565 c -3.8038 0.0018 -7.069 2.3257 -8.4469 5.6321 l -17.4646 -0.0009 l 22.9781 -22.9781 c 0.9211 0.3107 1.9093 0.4863 2.9351 0.4863 c 5.0558 0 9.152 -4.0962 9.1547 -9.1547 c -0.0009 -5.0549 -4.0998 -9.1538 -9.1529 -9.1529 c -5.0595 0.0036 -9.1556 4.0998 -9.1547 9.1547 c 0.0009 1.2493 0.2518 2.4452 0.7078 3.5335 l -23.1924 23.1924 c -1.0884 -0.4559 -2.2779 -0.7097 -3.5335 -0.7078 c -3.8286 -0.0009 -7.1002 2.3496 -8.4699 5.6827 L -0.0018 85.9751 Z" fill="#F05133"/></svg>